<svg width="106" height="106" viewBox="0 0 106 106" fill="none" xmlns="http://www.w3.org/2000/svg">
<path d="M53 0C23.729 0 0 23.729 0 53C0 82.271 23.729 106 53 106C82.2709 106 106 82.2709 106 53C106 23.729 82.2709 0 53 0ZM53 94.4782C30.089 94.4782 11.5218 75.9052 11.5218 53C11.5218 30.0948 30.089 11.5218 53 11.5218C75.9109 11.5218 94.4782 30.0948 94.4782 53C94.4782 75.9052 75.9109 94.4782 53 94.4782ZM63.3696 30.8206H42.6304V54.3826H29.6685L53 76.3315L76.3315 54.3826H63.3695L63.3696 30.8206V30.8206Z" fill="#333333"/>
</svg>
