<svg width="22" height="22" viewBox="0 0 22 22" fill="none" xmlns="http://www.w3.org/2000/svg">
<circle cx="11" cy="11" r="10.5" fill="white" stroke="black"/>
<path d="M7.87193 17.1L10.4005 16.4789H11.5995L14.1281 17.1H7.87193ZM16.45 6.90105V6.40105H15.95H6.04999H5.54999V6.90105V14.0337V14.5337H6.04999H15.95H16.45V14.0337V6.90105ZM17.1 14.6821C17.1 14.8756 17.0911 14.9953 17.0754 15.0729C17.0716 15.0918 17.0679 15.1053 17.065 15.1146C17.0552 15.118 17.0406 15.1222 17.0201 15.1266C16.94 15.1438 16.8138 15.1547 16.61 15.1547H5.38999C5.19577 15.1547 5.07362 15.1446 4.99438 15.1279C4.96793 15.1224 4.95095 15.117 4.94083 15.1132C4.9374 15.1041 4.93275 15.0896 4.92781 15.0676C4.91099 14.9929 4.89999 14.8744 4.89999 14.6821V6.25263C4.89999 6.06665 4.91162 5.95119 4.9287 5.87839C4.93514 5.85094 4.94115 5.83476 4.94499 5.8262C4.95432 5.82199 4.97279 5.81515 5.0051 5.80799C5.0823 5.7909 5.2016 5.78 5.38999 5.78H16.61C16.7976 5.78 16.9161 5.79206 16.9917 5.80978C17.0266 5.81796 17.0453 5.8257 17.0538 5.83C17.0578 5.83809 17.0647 5.85529 17.072 5.88685C17.0888 5.95916 17.1 6.07231 17.1 6.25263V14.6821ZM17.0582 15.1321C17.0582 15.1321 17.0584 15.1316 17.0588 15.1308L17.0582 15.1321ZM17.081 15.1082C17.0818 15.1076 17.0823 15.1074 17.0823 15.1074L17.081 15.1082ZM4.92825 15.1075C4.92828 15.1075 4.92876 15.1077 4.92959 15.1083L4.92825 15.1075ZM4.94563 15.1242C4.9463 15.1252 4.9466 15.1258 4.94658 15.1258L4.94563 15.1242ZM4.94927 5.81813C4.94929 5.81818 4.94894 5.8188 4.94814 5.81985C4.94885 5.81862 4.94925 5.81809 4.94927 5.81813ZM4.93847 5.82946C4.93758 5.83013 4.93706 5.83043 4.93702 5.83041L4.93847 5.82946ZM17.0597 5.83349C17.0597 5.83351 17.0591 5.83316 17.0582 5.8324C17.0593 5.83309 17.0598 5.83347 17.0597 5.83349ZM17.0515 5.82568C17.0507 5.82466 17.0503 5.82406 17.0504 5.82402C17.0504 5.82397 17.0508 5.82448 17.0515 5.82568Z" fill="black" stroke="black"/>
</svg>
