<svg width="22" height="22" viewBox="0 0 22 22" fill="none" xmlns="http://www.w3.org/2000/svg">
<circle cx="11" cy="11" r="10.5" fill="white" stroke="black"/>
<path d="M11.0008 4C7.13283 3.99839 4 7.21483 4 11.1848C4 14.3241 5.95978 16.9927 8.68909 17.9727C9.05664 18.0675 9.00034 17.7992 9.00034 17.616V16.3709C6.87789 16.6263 6.79187 15.1836 6.64954 14.9426C6.36175 14.4381 5.68138 14.3096 5.88471 14.0686C6.368 13.8132 6.86069 14.1329 7.43157 14.9989C7.84449 15.627 8.64998 15.521 9.05821 15.4166C9.14736 15.039 9.33817 14.7016 9.60094 14.4398C7.40185 14.0349 6.48531 12.6564 6.48531 11.0177C6.48531 10.2224 6.74025 9.49139 7.24076 8.90177C6.92169 7.92977 7.27047 7.09754 7.31739 6.97384C8.22612 6.89029 9.17082 7.64219 9.24433 7.70163C9.76047 7.55864 10.3501 7.48313 11.0102 7.48313C11.6733 7.48313 12.2646 7.56185 12.7854 7.70645C12.9621 7.56828 13.838 6.92242 14.6826 7.00115C14.728 7.12486 15.0689 7.9378 14.7686 8.89695C15.2754 9.48818 15.5335 10.2256 15.5335 11.0225C15.5335 12.6644 14.6107 14.0445 12.4053 14.443C12.5942 14.6338 12.7442 14.8613 12.8465 15.1124C12.9488 15.3634 13.0014 15.6328 13.0012 15.905V17.7124C13.0137 17.857 13.0012 18 13.2358 18C16.0058 17.0409 18 14.353 18 11.1864C18 7.21483 14.8656 4 11.0008 4V4Z" fill="black"/>
</svg>
