<svg width="22" height="22" viewBox="0 0 22 22" fill="none" xmlns="http://www.w3.org/2000/svg">
<circle cx="11" cy="11" r="10.5" fill="white" stroke="black"/>
<path d="M4.92079 16.5743V16.5744C5.02981 16.8861 5.33655 17.0673 5.36404 17.0712C5.37345 17.0722 5.38763 17.0733 5.39242 17.0736C5.39979 17.074 5.40568 17.0742 5.40709 17.0742L5.40716 17.0742L5.41626 17.0744L5.42768 17.0745L5.46086 17.0747L5.5873 17.075L6.08995 17.0756C6.53646 17.076 7.20616 17.0764 8.09897 17.0768C9.88463 17.0776 12.5631 17.0784 16.1343 17.0792H16.1344C16.4461 16.9702 16.6273 16.6634 16.6312 16.636C16.6322 16.6265 16.6333 16.6124 16.6336 16.6076C16.634 16.6002 16.6342 16.5943 16.6342 16.5929L16.6342 16.5928L16.6344 16.5837L16.6345 16.5723L16.6347 16.5391L16.635 16.4127L16.6356 15.91C16.636 15.4635 16.6364 14.7938 16.6368 13.901C16.6376 12.1154 16.6384 9.43691 16.6392 5.86569V5.86558C16.5302 5.55391 16.2234 5.37273 16.196 5.36881C16.1865 5.36782 16.1724 5.36667 16.1676 5.36638C16.1603 5.36596 16.1544 5.36579 16.1529 5.36575L16.1528 5.36575L16.1437 5.36556L16.1323 5.36544L16.0991 5.36529L15.9727 5.36498L15.47 5.36439C15.0235 5.36399 14.3538 5.36359 13.461 5.36319C11.6754 5.36239 8.9969 5.36159 5.42569 5.3608H5.42558C5.11391 5.46982 4.93272 5.77655 4.92881 5.80404C4.92782 5.81346 4.92667 5.82763 4.92638 5.83242C4.92596 5.83973 4.92579 5.84558 4.92575 5.84706L4.92575 5.84716L4.92556 5.85627L4.92544 5.86769L4.92528 5.90086L4.92498 6.0273L4.92438 6.52995C4.92398 6.97647 4.92359 7.64616 4.92319 8.53898C4.92239 10.3246 4.92159 13.0031 4.92079 16.5743ZM9.87161 10.1234H10.6883V10.456V10.956H11.1883H11.2138H11.3783C11.2274 11.0758 11.1114 11.2213 11.0243 11.3791C10.7974 11.7903 10.7633 12.2936 10.7633 12.7002V15.2131H9.87161V10.1234ZM12.3989 10.6371C12.0975 10.6371 11.8239 10.6943 11.5869 10.8198L11.6556 10.6901C11.827 10.3667 12.2792 9.97188 13.005 9.97188C13.8395 9.97188 14.2219 10.2359 14.4352 10.5743C14.6818 10.9655 14.7747 11.5644 14.7747 12.3732V15.2131H13.883V12.7512L13.883 12.7349C13.8831 12.4033 13.8831 11.9083 13.7195 11.4951C13.6307 11.2707 13.4853 11.0455 13.248 10.8799C13.0096 10.7135 12.7212 10.6371 12.3989 10.6371ZM6.64173 7.69477V7.69345C6.64173 7.61501 6.65719 7.53733 6.68721 7.46485C6.71723 7.39238 6.76123 7.32652 6.8167 7.27105C6.87217 7.21558 6.93802 7.17158 7.01049 7.14156C7.08297 7.11154 7.16065 7.09609 7.23909 7.09609C7.31754 7.09609 7.39522 7.11154 7.46769 7.14156C7.54017 7.17158 7.60602 7.21558 7.66149 7.27105C7.71696 7.32652 7.76096 7.39238 7.79098 7.46485C7.821 7.53733 7.83645 7.615 7.83645 7.69345C7.83645 8.02294 7.56793 8.29081 7.23909 8.29081C6.90681 8.29081 6.64087 8.02297 6.64173 7.69477ZM5.42558 5.34H16.1344C16.4245 5.34 16.66 5.5755 16.66 5.86558V16.5744C16.66 16.8645 16.4245 17.1 16.1344 17.1H5.42558C5.1355 17.1 4.89999 16.8645 4.89999 16.5744V5.86558C4.89999 5.5755 5.1355 5.34 5.42558 5.34ZM6.79166 10.1234H7.68493V15.2131H6.79166V10.1234Z" fill="black" stroke="black"/>
</svg>
