<svg width="22" height="22" viewBox="0 0 22 22" fill="none" xmlns="http://www.w3.org/2000/svg">
<circle cx="11" cy="11" r="10.5" fill="white" stroke="black"/>
<path d="M10.8476 16.9622L11.2397 17.4656L11.6347 16.9644C12.4143 15.9752 13.3389 14.6818 14.0713 13.3629C14.793 12.0634 15.372 10.6629 15.372 9.48201C15.372 7.20211 13.5219 5.35201 11.242 5.35201C8.9621 5.35201 7.112 7.20211 7.112 9.48201C7.112 10.6535 7.69969 12.0586 8.42376 13.3605C9.15933 14.683 10.0833 15.9812 10.8476 16.9622ZM11.242 18.1564C11.1274 18.0209 10.9903 17.8562 10.8362 17.6662C10.3662 17.0871 9.74033 16.2768 9.11549 15.3507C8.48968 14.4231 7.87104 13.3885 7.41037 12.3602C6.94676 11.3254 6.66 10.3337 6.66 9.48201C6.66 6.94853 8.70853 4.90001 11.242 4.90001C13.7755 4.90001 15.824 6.94853 15.824 9.48201C15.824 10.3337 15.5372 11.3254 15.0736 12.3602C14.613 13.3885 13.9943 14.4231 13.3685 15.3507C12.7437 16.2768 12.1178 17.0871 11.6478 17.6662C11.4937 17.8562 11.3566 18.0209 11.242 18.1564Z" fill="black" stroke="black"/>
<path d="M12.557 9.48201C12.557 10.2083 11.9683 10.797 11.242 10.797C10.5157 10.797 9.927 10.2083 9.927 9.48201C9.927 8.75575 10.5157 8.16701 11.242 8.16701C11.9683 8.16701 12.557 8.75575 12.557 9.48201Z" fill="black" stroke="black"/>
</svg>
