<svg width="22" height="22" viewBox="0 0 22 22" fill="none" xmlns="http://www.w3.org/2000/svg">
<circle cx="11" cy="11" r="10.5" fill="white" stroke="black"/>
<path d="M15.2756 5.09964L15.2758 5.09981L17.0908 6.91288C17.0909 6.913 17.0911 6.91313 17.0912 6.91325C17.4394 7.26292 17.5999 7.76105 17.5196 8.24007L17.5195 8.2408C17.1635 10.385 16.0189 12.533 14.2764 14.2787C12.5321 16.021 10.3841 17.1667 8.24199 17.5194L8.24199 17.5193L8.23853 17.5199C8.15929 17.5336 8.0803 17.54 7.99585 17.54C7.59333 17.54 7.19869 17.3763 6.91377 17.0914L5.09964 15.2776C4.96954 15.1475 4.89999 14.9795 4.89999 14.7975C4.89999 14.6175 4.97103 14.4462 5.09936 14.3177C5.09945 14.3176 5.09955 14.3175 5.09964 14.3174L7.05653 12.3659L7.05654 12.3659L7.05936 12.3631C7.1213 12.3003 7.19516 12.2505 7.27661 12.2166C7.35805 12.1827 7.44544 12.1655 7.53365 12.1658H7.5355C7.71498 12.1658 7.88496 12.2364 8.01402 12.3654L9.5415 13.8944L9.78178 14.135L10.0938 13.9999C10.9627 13.624 11.7469 13.0923 12.4177 12.4181C13.0876 11.7505 13.6235 10.9608 13.9966 10.0917L14.1301 9.78065L13.8909 9.54114L12.3632 8.01195L12.363 8.01175C12.2329 7.88167 12.1633 7.71371 12.1633 7.53169C12.1633 7.35155 12.2344 7.18016 12.3629 7.05168C12.3629 7.05166 12.363 7.05164 12.363 7.05162L14.3183 5.09995L14.32 5.09828C14.4473 4.97001 14.616 4.89999 14.7971 4.89999C14.9766 4.89999 15.1466 4.9706 15.2756 5.09964ZM7.07114 16.9326L7.07279 16.9342C7.36691 17.2256 7.78583 17.367 8.2019 17.2973C10.3284 16.9457 12.4238 15.808 14.1157 14.1163C15.8076 12.4246 16.9452 10.3282 17.2971 8.20228C17.3672 7.78562 17.2255 7.36544 16.9307 7.07071L15.149 5.28921L14.7953 4.93556L14.4417 5.28937L12.5526 7.17998L12.1991 7.5337L12.5529 7.88711L14.3857 9.71813L14.3607 9.78563L14.3602 9.78691C13.975 10.8355 13.3664 11.7878 12.5765 12.5779C11.7867 13.3679 10.8344 13.9768 9.7858 14.3623L9.78468 14.3627L9.71719 14.3877L7.88592 12.5536L7.53223 12.1994L7.1784 12.5535L5.28925 14.4441L4.93595 14.7976L5.28941 15.1511L7.07114 16.9326Z" fill="black" stroke="black"/>
</svg>
